HIERARCHY
ROOT Hips
{
	OFFSET 0.00 0.00 0.00
	CHANNELS 6 Xposition Yposition Zposition Xrotation Yrotation Zrotation
	JOINT Spine
	{
		OFFSET 0.00000 1.72418 2.58627
		CHANNELS 3 Xrotation Yrotation Zrotation
		JOINT Spine1
		{
			OFFSET 0.00000 0.59880 3.39597
			CHANNELS 3 Xrotation Yrotation Zrotation
			JOINT Spine2
			{
				OFFSET 0.00000 0.30055 3.43524
				CHANNELS 3 Xrotation Yrotation Zrotation
				JOINT Spine3
				{
					OFFSET 0.00000 0.00000 3.44836
					CHANNELS 3 Xrotation Yrotation Zrotation
					JOINT Neck
					{
						OFFSET 0.00000 -1.29313 9.05195
						CHANNELS 3 Xrotation Yrotation Zrotation
						JOINT Head
						{
							OFFSET 0.00000 -0.82335 4.66946
							CHANNELS 3 Xrotation Yrotation Zrotation
							End Site
							{
								OFFSET 0.00000 0.00001 5.58203
							}
						}
					}
					JOINT RightShoulder
					{
						OFFSET -1.18828 -1.98046 6.41673
						CHANNELS 3 Xrotation Yrotation Zrotation
						JOINT RightArm
						{
							OFFSET -5.90180 0.00000 0.00000
							CHANNELS 3 Xrotation Yrotation Zrotation
							JOINT RightForeArm
							{
								OFFSET -11.45951 0.00000 0.00000
								CHANNELS 3 Xrotation Yrotation Zrotation
								JOINT RightHand
								{
									OFFSET -10.63451 0.00000 0.00000
									CHANNELS 3 Xrotation Yrotation Zrotation
									JOINT RightHandEnd
									{
										OFFSET -2.86944 0.00000 0.00000
										CHANNELS 3 Xrotation Yrotation Zrotation
										End Site
										{
											OFFSET -2.86944 0.00000 0.00000
										}
									}
									JOINT RightHandThumb1
									{
										OFFSET -1.14778 -1.91296 -0.76518
										CHANNELS 3 Yrotation Xrotation Zrotation
										End Site
										{
											OFFSET -2.77167 -0.74267 0.00000
										}
									}
								}
							}
						}
					}
					JOINT LeftShoulder
					{
						OFFSET 1.18828 -1.98046 6.41673
						CHANNELS 3 Xrotation Yrotation Zrotation
						JOINT LeftArm
						{
							OFFSET 5.90180 0.00000 0.00000
							CHANNELS 3 Xrotation Yrotation Zrotation
							JOINT LeftForeArm
							{
								OFFSET 11.45951 0.00000 0.00000
								CHANNELS 3 Xrotation Yrotation Zrotation
								JOINT LeftHand
								{
									OFFSET 10.63451 0.00000 0.00000
									CHANNELS 3 Xrotation Yrotation Zrotation
									JOINT LeftHandEnd
									{
										OFFSET 2.86944 0.00000 0.00000
										CHANNELS 3 Xrotation Yrotation Zrotation
										End Site
										{
											OFFSET 2.86944 0.00000 0.00000
										}
									}
									JOINT LeftHandThumb1
									{
										OFFSET 1.14778 -1.91296 -0.76518
										CHANNELS 3 Yrotation Xrotation Zrotation
										End Site
										{
											OFFSET 2.77167 -0.74267 0.00000
										}
									}
								}
							}
						}
					}
				}
			}
		}
	}
	JOINT RightUpLeg
	{
		OFFSET -3.52524 0.00000 -1.02984
		CHANNELS 3 Xrotation Yrotation Zrotation
		JOINT RightLeg
		{
			OFFSET 0.00001 0.00000 -17.80965
			CHANNELS 3 Xrotation Yrotation Zrotation
			JOINT RightFoot
			{
				OFFSET 0.00001 0.00000 -17.00908
				CHANNELS 3 Xrotation Yrotation Zrotation
				JOINT RightToeBase
				{
					OFFSET 0.00000 -5.55853 -2.02314
					CHANNELS 3 Xrotation Yrotation Zrotation
					End Site
					{
						OFFSET 0.00000 -2.85188 -0.00000
					}
				}
			}
		}
	}
	JOINT LeftUpLeg
	{
		OFFSET 3.52524 0.00000 -1.02984
		CHANNELS 3 Xrotation Yrotation Zrotation
		JOINT LeftLeg
		{
			OFFSET 0.00001 0.00000 -17.80965
			CHANNELS 3 Xrotation Yrotation Zrotation
			JOINT LeftFoot
			{
				OFFSET 0.00001 0.00000 -17.00908
				CHANNELS 3 Xrotation Yrotation Zrotation
				JOINT LeftToeBase
				{
					OFFSET 0.00000 -5.55853 -2.02314
					CHANNELS 3 Xrotation Yrotation Zrotation
					End Site
					{
						OFFSET 0.00000 -2.85188 -0.00000
					}
				}
			}
		}
	}
}
MOTION
Frames: 18
Frame Time: 0.008342
 5.9010 -93.8266 36.3658 -6.0426 2.1001 -179.2947 1.0945 -1.0915 -0.4164 0.4029 -0.0084 -0.0723 4.1666 -0.4600 0.0082 1.1029 0.0533 0.2126 1.6255 2.2668 -0.1375 2.6260 2.2367 -1.2086 15.4098 -13.7330 2.9357 21.1039 -46.6230 30.3485 0.0000 0.0000 31.2934 -8.4107 21.1560 0.1554 -0.0000 0.0000 0.0000 0.0000 -0.0000 0.0000 20.0787 10.7453 -1.8891 31.9054 45.2033 -43.1513 -0.0000 -0.0000 -26.3869 -8.8972 -19.5558 1.3933 0.0000 0.0000 -0.0000 0.0000 0.0000 -0.0000 -11.3909 0.8844 -27.1167 19.1992 0.0000 0.0000 -17.4694 3.3105 3.3607 -0.3839 0.0000 -0.0000 -10.8062 -1.7248 8.7280 15.6948 0.0000 0.0000 -12.8996 7.0403 0.2588 -11.3078 0.0000 -0.0000
 5.8951 -93.8356 36.3683 -6.0212 2.0952 -179.1603 1.0907 -1.0815 -0.4190 0.3984 -0.0007 -0.0731 4.1853 -0.4770 -0.0292 1.1015 0.0446 0.2131 1.5593 2.2106 -0.1700 2.5458 2.2284 -1.2106 15.4073 -13.7868 2.9297 20.9716 -46.6176 30.2247 0.0000 0.0000 31.3282 -8.4313 21.2111 0.1765 0.0000 -0.0000 -0.0000 0.0000 0.0000 0.0000 20.1401 10.7048 -1.9277 31.9636 45.2213 -43.2326 -0.0000 -0.0000 -26.6896 -8.8292 -19.4717 1.2192 -0.0000 0.0000 -0.0000 0.0000 -0.0000 0.0000 -11.3287 0.8853 -27.2159 19.1038 0.0000 0.0000 -17.4493 3.3413 3.3307 -0.3589 0.0000 -0.0000 -10.7958 -1.7064 8.7039 15.6283 0.0000 0.0000 -12.7100 6.9745 0.1461 -10.4548 0.0000 -0.0000
 5.8878 -93.8470 36.3712 -5.9966 2.0847 -178.9822 1.0804 -1.0705 -0.4231 0.3922 0.0080 -0.0748 4.2110 -0.4987 -0.0797 1.1008 0.0332 0.2126 1.4742 2.1363 -0.2137 2.4426 2.2179 -1.2135 15.4065 -13.8617 2.9252 20.7815 -46.6182 30.0488 0.0000 0.0000 31.3787 -8.4616 21.2820 0.2035 -0.0000 0.0000 -0.0000 -0.0000 -0.0000 0.0000 20.2185 10.6556 -1.9801 32.0488 45.2251 -43.3390 -0.0000 -0.0000 -27.0916 -8.6835 -19.3649 1.0177 -0.0000 0.0000 -0.0000 0.0000 0.0000 0.0000 -11.2535 0.8823 -27.3370 18.9856 0.0000 0.0000 -17.4231 3.3807 3.2836 -0.3323 0.0000 -0.0000 -10.7901 -1.6875 8.6683 15.5540 0.0000 0.0000 -12.4858 6.9097 0.0099 -9.3993 0.0000 -0.0000
 5.8791 -93.8601 36.3745 -5.9592 2.0719 -178.7633 1.0728 -1.0557 -0.4280 0.3841 0.0194 -0.0766 4.2433 -0.5272 -0.1439 1.1009 0.0208 0.2118 1.3717 2.0448 -0.2696 2.3194 2.2055 -1.2182 15.4063 -13.9561 2.9183 20.5367 -46.6285 29.8266 0.0000 0.0000 31.4422 -8.5021 21.3676 0.2378 0.0000 0.0000 -0.0000 -0.0000 0.0000 0.0000 20.3144 10.5999 -2.0441 32.1700 45.1972 -43.4796 -0.0000 -0.0000 -27.5875 -8.4528 -19.2367 0.7951 -0.0000 0.0000 -0.0000 0.0000 -0.0000 0.0000 -11.1565 0.8797 -27.4786 18.8495 0.0000 0.0000 -17.3938 3.4271 3.2220 -0.3061 0.0000 -0.0000 -10.7764 -1.6644 8.6224 15.4707 0.0000 0.0000 -12.2338 6.8507 -0.1463 -8.1771 0.0000 -0.0000
 5.8693 -93.8746 36.3780 -5.9140 2.0537 -178.5075 1.0634 -1.0403 -0.4340 0.3733 0.0316 -0.0790 4.2825 -0.5603 -0.2200 1.1017 0.0075 0.2102 1.2547 1.9383 -0.3365 2.1785 2.1913 -1.2253 15.4081 -14.0696 2.9099 20.2383 -46.6500 29.5609 0.0000 0.0000 31.5171 -8.5575 21.4657 0.2805 0.0000 -0.0000 -0.0000 0.0000 -0.0000 -0.0000 20.4294 10.5411 -2.1180 32.3230 45.1292 -43.6536 -0.0000 -0.0000 -28.1660 -8.1305 -19.0852 0.5580 0.0000 -0.0000 -0.0000 0.0000 0.0000 -0.0000 -11.0449 0.8735 -27.6350 18.6998 0.0000 0.0000 -17.3602 3.4795 3.1439 -0.2831 0.0000 -0.0000 -10.7621 -1.6422 8.5680 15.3867 0.0000 0.0000 -11.9668 6.8015 -0.3204 -6.8404 0.0000 -0.0000
 5.8584 -93.8901 36.3814 -5.8667 2.0346 -178.2231 1.0468 -1.0206 -0.4402 0.3614 0.0443 -0.0816 4.3267 -0.5967 -0.3057 1.1034 -0.0065 0.2079 1.1266 1.8203 -0.4126 2.0249 2.1752 -1.2357 15.4075 -14.2001 2.9001 19.8919 -46.6862 29.2526 0.0000 0.0000 31.6036 -8.6278 21.5715 0.3290 0.0000 0.0000 0.0000 0.0000 0.0000 0.0000 20.5418 10.4837 -2.1987 32.5230 45.0137 -43.8553 -0.0000 -0.0000 -28.8125 -7.7139 -18.9142 0.3123 0.0000 0.0000 0.0000 0.0000 -0.0000 0.0000 -10.9307 0.8696 -27.7946 18.5491 0.0000 0.0000 -17.3267 3.5371 3.0471 -0.2651 0.0000 -0.0000 -10.7529 -1.6168 8.5064 15.3065 0.0000 0.0000 -11.6955 6.7650 -0.5051 -5.4545 0.0000 -0.0000
 5.8469 -93.9060 36.3847 -5.8153 2.0136 -177.9183 1.0271 -1.0000 -0.4468 0.3480 0.0584 -0.0844 4.3733 -0.6350 -0.3982 1.1062 -0.0209 0.2047 0.9926 1.6953 -0.4955 1.8641 2.1574 -1.2510 15.4049 -14.3430 2.8882 19.5092 -46.7386 28.9140 0.0000 0.0000 31.6964 -8.7170 21.6836 0.3854 0.0000 0.0000 -0.0000 0.0000 -0.0000 -0.0000 20.6605 10.4316 -2.2806 32.7580 44.8404 -44.0888 -0.0000 -0.0000 -29.5037 -7.2128 -18.7278 0.0619 0.0000 0.0000 0.0000 0.0000 0.0000 -0.0000 -10.8138 0.8666 -27.9539 18.4033 0.0000 0.0000 -17.2939 3.5977 2.9352 -0.2540 0.0000 -0.0000 -10.7468 -1.5911 8.4397 15.2364 0.0000 0.0000 -11.4330 6.7432 -0.6965 -4.0892 0.0000 -0.0000
 5.8351 -93.9216 36.3876 -5.7614 1.9905 -177.6036 1.0026 -0.9793 -0.4525 0.3346 0.0720 -0.0873 4.4213 -0.6738 -0.4935 1.1093 -0.0336 0.2007 0.8583 1.5669 -0.5841 1.7014 2.1383 -1.2713 15.4014 -14.4947 2.8737 19.0978 -46.8093 28.5543 0.0000 0.0000 31.7908 -8.8233 21.7969 0.4486 0.0000 0.0000 -0.0000 0.0000 -0.0000 -0.0000 20.7818 10.3860 -2.3643 33.0102 44.6199 -44.3358 -0.0000 -0.0000 -30.2229 -6.6245 -18.5216 -0.1824 0.0000 -0.0000 0.0000 -0.0000 -0.0000 0.0000 -10.6988 0.8638 -28.1049 18.2684 0.0000 0.0000 -17.2625 3.6594 2.8095 -0.2510 0.0000 -0.0000 -10.7444 -1.5672 8.3723 15.1808 0.0000 0.0000 -11.1905 6.7367 -0.8912 -2.8143 0.0000 -0.0000
 5.8231 -93.9362 36.3901 -5.7037 1.9666 -177.2887 0.9770 -0.9597 -0.4583 0.3212 0.0857 -0.0899 4.4684 -0.7112 -0.5885 1.1127 -0.0454 0.1963 0.7282 1.4403 -0.6746 1.5425 2.1179 -1.2981 15.3914 -14.6493 2.8575 18.6746 -46.9000 28.1818 0.0000 0.0000 31.8849 -8.9504 21.9086 0.5166 0.0000 -0.0000 -0.0000 -0.0000 -0.0000 0.0000 20.8918 10.3480 -2.4458 33.2776 44.3629 -44.5864 -0.0000 -0.0000 -30.9504 -5.9605 -18.2992 -0.4163 0.0000 -0.0000 -0.0000 -0.0000 0.0000 0.0000 -10.5866 0.8622 -28.2435 18.1509 0.0000 0.0000 -17.2346 3.7204 2.6739 -0.2563 0.0000 -0.0000 -10.7434 -1.5453 8.3058 15.1437 0.0000 0.0000 -10.9767 6.7444 -1.0841 -1.6899 0.0000 -0.0000
 5.8112 -93.9493 36.3920 -5.6432 1.9424 -176.9832 0.9523 -0.9428 -0.4637 0.3065 0.0997 -0.0926 4.5128 -0.7456 -0.6784 1.1162 -0.0562 0.1916 0.6068 1.3206 -0.7640 1.3928 2.0962 -1.3323 15.3746 -14.8009 2.8379 18.2550 -47.0102 27.8122 0.0000 0.0000 31.9715 -9.0980 22.0171 0.5890 -0.0000 -0.0000 0.0000 0.0000 -0.0000 -0.0000 20.9952 10.3213 -2.5196 33.5537 44.0615 -44.8449 -0.0000 -0.0000 -31.6634 -5.2427 -18.0719 -0.6352 -0.0000 -0.0000 -0.0000 -0.0000 0.0000 0.0000 -10.4806 0.8625 -28.3655 18.0557 0.0000 0.0000 -17.2114 3.7791 2.5322 -0.2688 0.0000 -0.0000 -10.7441 -1.5264 8.2420 15.1280 0.0000 0.0000 -10.7978 6.7641 -1.2712 -0.7629 0.0000 -0.0000
 5.7995 -93.9608 36.3933 -5.5854 1.9195 -176.6965 0.9211 -0.9276 -0.4671 0.2951 0.1121 -0.0943 4.5524 -0.7752 -0.7611 1.1197 -0.0638 0.1865 0.4969 1.2093 -0.8509 1.2553 2.0745 -1.3734 15.3570 -14.9463 2.8173 17.8474 -47.1366 27.4582 0.0000 0.0000 32.0451 -9.2623 22.1217 0.6634 0.0000 -0.0000 0.0000 -0.0000 -0.0000 0.0000 21.0859 10.3017 -2.5827 33.8286 43.7356 -45.1031 -0.0000 -0.0000 -32.3466 -4.4828 -17.8392 -0.8364 0.0000 -0.0000 0.0000 -0.0000 -0.0000 0.0000 -10.3889 0.8661 -28.4660 17.9869 0.0000 0.0000 -17.1940 3.8346 2.3870 -0.2880 0.0000 -0.0000 -10.7503 -1.5097 8.1857 15.1331 0.0000 0.0000 -10.6553 6.7920 -1.4505 -0.0591 0.0000 -0.0000
 5.7880 -93.9705 36.3940 -5.5285 1.8984 -176.4340 0.8898 -0.9152 -0.4697 0.2821 0.1234 -0.0960 4.5880 -0.7988 -0.8322 1.1224 -0.0702 0.1817 0.4015 1.1117 -0.9322 1.1328 2.0517 -1.4226 15.3280 -15.0797 2.7954 17.4699 -47.2802 27.1240 0.0000 0.0000 32.1044 -9.4427 22.2206 0.7381 -0.0000 0.0000 -0.0000 0.0000 -0.0000 -0.0000 21.1511 10.2905 -2.6378 34.0996 43.4035 -45.3439 -0.0000 -0.0000 -32.9950 -3.6945 -17.6043 -1.0132 -0.0000 -0.0000 0.0000 0.0000 -0.0000 -0.0000 -10.3096 0.8731 -28.5447 17.9452 0.0000 0.0000 -17.1831 3.8862 2.2418 -0.3113 0.0000 -0.0000 -10.7592 -1.4956 8.1365 15.1594 0.0000 0.0000 -10.5487 6.8242 -1.6190 0.4143 0.0000 0.0000
 5.7770 -93.9777 36.3942 -5.4637 1.8774 -176.1995 0.8654 -0.9089 -0.4719 0.2732 0.1341 -0.0969 4.6149 -0.8167 -0.8906 1.1243 -0.0747 0.1774 0.3214 1.0285 -1.0068 1.0277 2.0293 -1.4789 15.3017 -15.1975 2.7731 17.1302 -47.4335 26.8306 0.0000 0.0000 32.1416 -9.6389 22.3166 0.8132 -0.0000 0.0000 0.0000 0.0000 0.0000 0.0000 21.2126 10.2849 -2.6813 34.3461 43.0701 -45.5763 -0.0000 -0.0000 -33.5976 -2.8972 -17.3694 -1.1640 0.0000 0.0000 0.0000 -0.0000 0.0000 0.0000 -10.2300 0.8798 -28.6075 17.9237 0.0000 0.0000 -17.1766 3.9321 2.1033 -0.3364 0.0000 -0.0000 -10.7588 -1.4869 8.0970 15.2024 0.0000 0.0000 -10.4750 6.8563 -1.7786 0.6714 0.0000 0.0000
 5.7661 -93.9834 36.3939 -5.4039 1.8595 -175.9959 0.8377 -0.9049 -0.4727 0.2625 0.1426 -0.0975 4.6379 -0.8276 -0.9345 1.1256 -0.0770 0.1740 0.2549 0.9605 -1.0740 0.9393 2.0069 -1.5415 15.2659 -15.2983 2.7520 16.8408 -47.5958 26.5754 0.0000 0.0000 32.1573 -9.8454 22.4070 0.8848 -0.0000 0.0000 0.0000 0.0000 0.0000 0.0000 21.2444 10.2821 -2.7159 34.5822 42.7573 -45.7872 -0.0000 -0.0000 -34.1562 -2.1020 -17.1345 -1.2883 0.0000 -0.0000 -0.0000 -0.0000 0.0000 0.0000 -10.1666 0.8904 -28.6495 17.9265 0.0000 0.0000 -17.1762 3.9740 1.9697 -0.3615 0.0000 -0.0000 -10.7624 -1.4797 8.0675 15.2600 0.0000 0.0000 -10.4274 6.8837 -1.9262 0.7424 0.0000 0.0000
 5.7554 -93.9869 36.3932 -5.3375 1.8447 -175.8229 0.8167 -0.9036 -0.4729 0.2548 0.1502 -0.0973 4.6534 -0.8331 -0.9643 1.1259 -0.0778 0.1719 0.2016 0.9078 -1.1328 0.8677 1.9857 -1.6089 15.2328 -15.3802 2.7336 16.6064 -47.7582 26.3737 0.0000 0.0000 32.1466 -10.0574 22.4951 0.9538 0.0000 -0.0000 -0.0000 0.0000 -0.0000 0.0000 21.2705 10.2811 -2.7409 34.7892 42.4662 -45.9847 -0.0000 -0.0000 -34.6691 -1.3240 -16.9017 -1.3828 0.0000 -0.0000 0.0000 0.0000 -0.0000 0.0000 -10.1030 0.9035 -28.6775 17.9456 0.0000 0.0000 -17.1805 4.0108 1.8460 -0.3842 0.0000 -0.0000 -10.7541 -1.4741 8.0493 15.3242 0.0000 0.0000 -10.3984 6.9031 -2.0642 0.6700 0.0000 0.0000
 5.7445 -93.9890 36.3922 -5.2692 1.8347 -175.6795 0.7980 -0.9028 -0.4720 0.2485 0.1568 -0.0964 4.6633 -0.8341 -0.9803 1.1257 -0.0775 0.1716 0.1585 0.8698 -1.1838 0.8101 1.9655 -1.6801 15.2010 -15.4439 2.7191 16.4332 -47.9150 26.2286 0.0000 0.0000 32.1091 -10.2724 22.5806 1.0187 0.0000 -0.0000 -0.0000 -0.0000 0.0000 0.0000 21.2848 10.2810 -2.7600 34.9676 42.2107 -46.1619 -0.0000 -0.0000 -35.1426 -0.5732 -16.6697 -1.4503 0.0000 0.0000 0.0000 0.0000 0.0000 0.0000 -10.0437 0.9207 -28.6913 17.9793 0.0000 0.0000 -17.1893 4.0435 1.7310 -0.4033 0.0000 -0.0000 -10.7376 -1.4677 8.0421 15.3902 0.0000 0.0000 -10.3801 6.9120 -2.1922 0.5023 0.0000 0.0000
 5.7336 -93.9899 36.3910 -5.2010 1.8289 -175.5622 0.7794 -0.9014 -0.4707 0.2422 0.1623 -0.0949 4.6699 -0.8312 -0.9836 1.1248 -0.0764 0.1725 0.1219 0.8440 -1.2270 0.7660 1.9480 -1.7528 15.1705 -15.4919 2.7116 16.3259 -48.0583 26.1416 0.0000 0.0000 32.0460 -10.4860 22.6638 1.0782 -0.0000 -0.0000 0.0000 -0.0000 -0.0000 0.0000 21.2994 10.2814 -2.7713 35.1139 41.9842 -46.3302 -0.0000 -0.0000 -35.5765 0.1374 -16.4428 -1.4914 0.0000 -0.0000 0.0000 0.0000 -0.0000 -0.0000 -9.9896 0.9413 -28.6927 18.0237 0.0000 0.0000 -17.2014 4.0729 1.6236 -0.4184 0.0000 -0.0000 -10.7146 -1.4599 8.0447 15.4539 0.0000 0.0000 -10.3664 6.9091 -2.3104 0.2890 0.0000 0.0000
 5.7223 -93.9901 36.3897 -5.1350 1.8300 -175.4687 0.7583 -0.8953 -0.4685 0.2355 0.1661 -0.0931 4.6747 -0.8254 -0.9753 1.1235 -0.0749 0.1753 0.0894 0.8293 -1.2633 0.7316 1.9328 -1.8254 15.1423 -15.5265 2.7109 16.2857 -48.1819 26.1149 0.0000 0.0000 31.9574 -10.6924 22.7431 1.1333 -0.0000 -0.0000 0.0000 -0.0000 -0.0000 -0.0000 21.2904 10.2818 -2.7842 35.2387 41.8107 -46.4667 -0.0000 -0.0000 -35.9868 0.8087 -16.2147 -1.5043 0.0000 -0.0000 -0.0000 0.0000 -0.0000 0.0000 -9.9428 0.9683 -28.6807 18.0781 0.0000 0.0000 -17.2173 4.1003 1.5213 -0.4289 0.0000 -0.0000 -10.6854 -1.4470 8.0568 15.5097 0.0000 0.0000 -10.3507 6.8946 -2.4188 0.0732 0.0000 0.0000
